<?xml version="1.0" encoding="UTF-8"?>
<svg version="1.1" xmlns="http://www.w3.org/2000/svg" width="512" height="512">
<path d="M0 0 C4.53615311 3.44772802 8.69815151 7.20956366 12.81640625 11.140625 C13.43 11.67945313 14.04359375 12.21828125 14.67578125 12.7734375 C28.77063347 25.6398393 38.86924097 48.18513594 39.9934082 67.12231445 C40.39106482 87.44399362 39.48593426 103.92267369 29.81640625 122.140625 C29.30335938 123.14609375 28.7903125 124.1515625 28.26171875 125.1875 C23.85946231 133.31798319 18.29896449 139.64906321 11.81640625 146.140625 C11.01203125 146.95660156 10.20765625 147.77257812 9.37890625 148.61328125 C2.91660107 154.80986665 -4.30313365 159.04781201 -12.18359375 163.140625 C-13.54097656 163.86765625 -13.54097656 163.86765625 -14.92578125 164.609375 C-34.6630786 174.44802778 -60.55795936 175.69078533 -81.56640625 169.40234375 C-87.34865323 167.38542607 -92.77604942 165.01078315 -98.18359375 162.140625 C-99.1890625 161.62757813 -100.19453125 161.11453125 -101.23046875 160.5859375 C-109.36095194 156.18368106 -115.69203196 150.62318324 -122.18359375 144.140625 C-122.99957031 143.33625 -123.81554687 142.531875 -124.65625 141.703125 C-130.8528354 135.24081982 -135.09078076 128.0210851 -139.18359375 120.140625 C-139.66828125 119.23570312 -140.15296875 118.33078125 -140.65234375 117.3984375 C-150.53155525 97.57977541 -151.67677452 71.76212628 -145.37109375 50.68359375 C-144.97921875 49.51441406 -144.58734375 48.34523438 -144.18359375 47.140625 C-143.83296875 46.08488281 -143.48234375 45.02914062 -143.12109375 43.94140625 C-138.39314079 31.3827812 -130.4560659 20.70663909 -121.18359375 11.140625 C-120.64605469 10.52960938 -120.10851562 9.91859375 -119.5546875 9.2890625 C-90.07143323 -23.07601362 -34.28569114 -23.92237305 0 0 Z " fill="#428DFE" transform="translate(310.18359375,177.859375)"/>
<path d="M0 0 C11.9995723 9.95034957 20.34348375 25.47866965 22 41 C23.41057598 58.62134913 18.65248366 75.22587771 7.14111328 88.81713867 C-4.43201059 101.77749378 -19.82716509 108.80669136 -37.015625 110.25390625 C-53.96274115 110.90090206 -69.75362648 105.02042569 -82.375 93.75 C-93.99416786 82.82644474 -101.31809897 67.56438927 -102.18359375 51.6171875 C-102.51421917 33.60782622 -96.75142805 17.04395212 -84.25 3.75 C-60.14392599 -18.91898114 -26.08424286 -19.28140791 0 0 Z " fill="#E7ECFC" transform="translate(296,208)"/>
<path d="M0 0 C1.42238668 1.36876496 2.81481415 2.76889684 4.1875 4.1875 C5.1053125 5.11949219 6.023125 6.05148438 6.96875 7.01171875 C41.9994 43.33513931 64.93838949 96.71763241 65.42578125 147.3046875 C65.4355751 148.15126923 65.44536896 148.99785095 65.45545959 149.87008667 C65.83513183 191.24089387 59.04677092 229.45274024 39.1875 266.1875 C38.86813477 266.7861084 38.54876953 267.3847168 38.21972656 268.00146484 C28.76295243 285.61410662 12.6572866 313.59932607 -6.05078125 322.21875 C-11.90777024 323.54236333 -16.50653824 323.14896703 -21.8125 320.1875 C-25.36142977 317.07796154 -27.54205498 313.72347627 -28.05078125 308.953125 C-28.2232129 303.10859962 -27.6161383 298.83160229 -23.8125 294.1875 C-21.96400668 292.27811513 -20.05711119 290.43891061 -18.14453125 288.59375 C7.08223672 262.56412007 22.81275591 227.50661048 29.1875 192.1875 C29.46678345 190.64570068 29.46678345 190.64570068 29.75170898 189.07275391 C31.35410157 179.21615141 31.54488704 169.51942853 31.5 159.5625 C31.49726578 158.30425919 31.49726578 158.30425919 31.49447632 157.02059937 C31.44875699 144.52373553 30.99746576 132.41195733 28.1875 120.1875 C28.02121094 119.42630859 27.85492188 118.66511719 27.68359375 117.88085938 C19.74023981 82.25344596 2.02704604 52.57874557 -22.0859375 25.6484375 C-22.71757812 24.93945312 -23.34921875 24.23046875 -24 23.5 C-24.52980469 22.91863281 -25.05960937 22.33726563 -25.60546875 21.73828125 C-28.96610444 17.42057132 -28.33778884 11.35160723 -27.8125 6.1875 C-25.18326389 0.62565438 -21.23690738 -2.51677829 -15.5 -4.6875 C-9.56022614 -4.96376855 -4.61431891 -3.87410525 0 0 Z " fill="#418DFF" transform="translate(414.8125,96.8125)"/>
<path d="M0 0 C3.77569361 2.97450984 5.87272514 5.67458743 6.5 10.4375 C6.60123648 17.59491944 5.55861426 22.38833364 0.50390625 27.59765625 C-0.82903337 28.89501432 -2.16525467 30.18900526 -3.50390625 31.48046875 C-36.58231889 65.61162819 -53.36106971 113.65473621 -53.1484375 160.57421875 C-53.14570328 161.82871323 -53.14570328 161.82871323 -53.14291382 163.10855103 C-53.09715358 175.58678807 -52.64170226 187.6805374 -49.8359375 199.88671875 C-49.66964844 200.64791016 -49.50335938 201.40910156 -49.33203125 202.19335938 C-41.38867731 237.82077279 -23.67548354 267.49547318 0.4375 294.42578125 C1.06914063 295.13476562 1.70078125 295.84375 2.3515625 296.57421875 C3.14626953 297.44626953 3.14626953 297.44626953 3.95703125 298.3359375 C7.31766694 302.65364743 6.68935134 308.72261152 6.1640625 313.88671875 C3.85359185 318.77425281 0.92123129 321.36821763 -3.8359375 323.88671875 C-8.68606621 325.25939669 -12.65896931 325.0904105 -17.32421875 323.33203125 C-27.9093288 317.2410659 -35.64351435 305.48616797 -42.8359375 295.88671875 C-43.89941406 294.49839844 -43.89941406 294.49839844 -44.984375 293.08203125 C-70.35937066 259.28213584 -86.6658521 215.15446218 -87.07421875 172.76953125 C-87.0840126 171.92294952 -87.09380646 171.0763678 -87.10389709 170.20413208 C-87.48356933 128.83332488 -80.69520842 90.62147851 -60.8359375 53.88671875 C-60.51657227 53.28811035 -60.19720703 52.68950195 -59.86816406 52.07275391 C-50.21087111 34.08665855 -33.83291721 5.82880429 -14.5234375 -2.55078125 C-9.24212886 -3.3564046 -4.6314876 -2.80845525 0 0 Z " fill="#418DFF" transform="translate(118.8359375,95.11328125)"/>
<path d="M0 0 C4.42927245 4.76146789 4.96856831 8.84728761 4.80859375 15.19921875 C4.1342544 20.63661326 1.30925179 24.01119722 -2.5625 27.6875 C-12.74396649 37.4975396 -19.88711924 49.83209137 -25.5 62.6875 C-25.78214355 63.33299805 -26.06428711 63.97849609 -26.35498047 64.64355469 C-39.99295075 96.6128215 -39.1022484 131.37459948 -26.25 163.4375 C-20.43194247 177.21929298 -12.44030935 188.59491368 -2.5 199.6875 C2.76787651 205.64607656 4.81975875 209.17508228 4.71484375 217.18359375 C4.31839316 221.80404521 2.50874693 224.58704881 -0.5625 227.9375 C-6.02659553 231.19270585 -11.18142756 232.09233011 -17.4375 231 C-38.24031753 221.32814896 -52.91116026 190.04291039 -60.5 169.6875 C-74.84687749 129.01136757 -73.65141206 84.51259059 -55.33789062 45.19238281 C-50.57928861 35.39904369 -45.34154985 26.1924855 -38.5 17.6875 C-37.78070313 16.76710937 -37.06140625 15.84671875 -36.3203125 14.8984375 C-23.97678733 -0.60571349 -23.97678733 -0.60571349 -17.0625 -4 C-10.92050421 -4.53877156 -4.99874603 -3.86211185 0 0 Z " fill="#418DFF" transform="translate(166.5,142.3125)"/>
<path d="M0 0 C27.9034095 21.74880091 44.48781628 61.5092285 48.75048828 95.73046875 C53.02962836 134.653058 44.69551481 176.19134697 21 208 C20.58492188 208.56025879 20.16984375 209.12051758 19.7421875 209.69775391 C3.37159212 231.6388991 3.37159212 231.6388991 -5.0625 233.8125 C-10.15260887 234.36472879 -14.53987939 233.53355964 -19 231 C-22.54632426 227.88532857 -24.72925033 224.53883296 -25.23828125 219.765625 C-25.41574337 213.75059325 -24.8415633 209.72192156 -21 205 C-19.99637078 203.98273451 -18.97378808 202.98397546 -17.9375 202 C-7.75603351 192.1899604 -0.61288076 179.85540863 5 167 C5.28214355 166.35450195 5.56428711 165.70900391 5.85498047 165.04394531 C19.35234688 133.40427319 18.59481117 99.04557409 6.1875 67.1875 C-0.66614934 50.97531425 -10.55102922 37.56492187 -22.5390625 24.76953125 C-25.99400325 20.58480355 -25.44047145 15.13349459 -25 10 C-23.33725312 5.27429835 -21.22088598 2.68601835 -17 0 C-11.0569963 -2.56364866 -5.86131139 -2.68328991 0 0 Z " fill="#428DFF" transform="translate(366,140)"/>
<path d="M0 0 C4.26747826 1.87352704 7.10555513 4.05507646 9.14453125 8.296875 C10.76816581 13.63457361 10.70505636 19.15980044 8.26953125 24.2265625 C5.65703216 28.11771431 2.18537123 29.99222378 -2.23046875 31.3515625 C-7.29687588 32.28764153 -11.40306442 31.38010272 -15.69140625 28.62890625 C-20.00248831 25.05092698 -22.0173693 20.56779682 -22.54296875 15.1015625 C-22.0593897 9.29861386 -19.88684225 5.85018614 -15.60546875 1.9765625 C-10.67308433 -1.39822684 -5.75476886 -1.67301511 0 0 Z " fill="#438DFE" transform="translate(262.23046875,240.6484375)"/>
</svg>
