<svg id="Layer_1" data-name="Layer 1" xmlns="http://www.w3.org/2000/svg" viewBox="0 0 971.63 964.25"><defs><style>.cls-1{fill:#0d74ce;}</style></defs><path class="cls-1" d="M648.84,40.16l-31.47,60.09c-358.62-93.2-532,229.19-532,382.07l111-4.87c7.79,219.09,156.77,357.37,392.42,308.68l38,61.34c-158.72,59.4-427.47,11.69-496.61-296h-112C-19.77,278.8,212.6-74.75,648.84,40.16Z" transform="translate(-14.19 -17.88)"/><path class="cls-1" d="M818.83,862.05l-40.21-61.92c265-254.31,70.65-567.63-58.73-649.07L666.4,250.39C452.29,134.21,260.79,213.62,203.59,438.58L129,437.24c34.28-166,202.52-397.5,502.55-287.45l53.75-92.56C938,152.08,1143.24,554,818.83,862.05Z" transform="translate(-14.19 -17.88)"/><path class="cls-1" d="M22.18,591.84,96.48,593C191.65,947.77,551.2,941.92,684.89,867.77l-61.26-94.72C828.58,641.4,857.52,443.75,697,274.8l38.45-65c128.93,110,234.1,371.29-6.88,581.18l55.21,91.69C578.94,1058.37,135.84,1024.54,22.18,591.84Z" transform="translate(-14.19 -17.88)"/></svg>